#N canvas 0 49 1366 696 24;
#X obj 266 509 pow;
#X obj 313 436 / 12;
#X floatatom 313 474 5 0 0 0 - - -, f 5;
#X msg 216 446 2;
#X obj 623 121 image raiz.png 0;
#X text 267 211 (Solon do Vale \, Manual Prático de Acústica \, p.32)
;
#X obj 1452 613 image tabela_compara.png 0;
#X floatatom 316 395 5 0 0 0 - - -, f 5;
#X obj 253 347 t b f;
#X obj 315 299 hradio 15 0 0 12 empty empty empty 0 -8 0 10 -262144
-1 -1 0;
#X obj 263 571 * 440;
#X floatatom 263 613 10 0 0 0 - - -, f 10;
#X symbolatom 338 738 10 0 0 0 - - -, f 10;
#X obj 261 653 ftom;
#X obj 253 693 pitch;
#X floatatom 227 749 5 0 0 0 - - -, f 5;
#X text 342 346 (12-TET);
#X obj 237 273 hsl 128 15 -64 64 0 0 empty empty empty -2 -8 0 10 -262144
-1 -1 8800 1;
#X obj 237 301 int;
#X text 340 572 fundamental em Lá;
#X obj 713 492 pow;
#X obj 766 429 / 12;
#X floatatom 766 467 5 0 0 0 - - -, f 5;
#X msg 669 439 2;
#X floatatom 769 388 5 0 0 0 - - -, f 5;
#X obj 706 340 t b f;
#X obj 768 292 hradio 15 0 0 12 empty empty empty 0 -8 0 10 -262144
-1 -1 0;
#X floatatom 716 606 10 0 0 0 - - -, f 10;
#X symbolatom 770 745 10 0 0 0 - - -, f 10;
#X obj 716 645 ftom;
#X obj 708 685 pitch;
#X floatatom 682 741 5 0 0 0 - - -, f 5;
#X text 795 339 (12-TET);
#X obj 690 266 hsl 128 15 -64 64 0 0 empty empty empty -2 -8 0 10 -262144
-1 -1 0 1;
#X obj 690 294 int;
#X text 833 569 fundamental em Dó;
#X obj 715 568 * 261.63;
#X floatatom 348 514 10 0 0 0 - - -, f 10;
#X text 417 478 fração;
#X floatatom 799 522 10 0 0 0 - - -, f 10;
#X text 868 486 fração;
#X text 777 308 Afinação Temperamento Igual;
#X text 324 315 Afinação Temperamento Igual;
#X connect 0 0 10 0;
#X connect 0 0 37 0;
#X connect 1 0 2 0;
#X connect 2 0 0 1;
#X connect 3 0 0 0;
#X connect 7 0 1 0;
#X connect 8 0 3 0;
#X connect 8 1 7 0;
#X connect 9 0 8 0;
#X connect 10 0 11 0;
#X connect 11 0 13 0;
#X connect 13 0 14 0;
#X connect 14 0 15 0;
#X connect 14 1 12 0;
#X connect 17 0 18 0;
#X connect 18 0 8 0;
#X connect 20 0 36 0;
#X connect 20 0 39 0;
#X connect 21 0 22 0;
#X connect 22 0 20 1;
#X connect 23 0 20 0;
#X connect 24 0 21 0;
#X connect 25 0 23 0;
#X connect 25 1 24 0;
#X connect 26 0 25 0;
#X connect 27 0 29 0;
#X connect 29 0 30 0;
#X connect 30 0 31 0;
#X connect 30 1 28 0;
#X connect 33 0 34 0;
#X connect 34 0 25 0;
#X connect 36 0 27 0;
